<svg id="Слой_1" xmlns="http://www.w3.org/2000/svg" width="64" height="64" viewBox="0 0 64 64"><path fill="#FFF" d="M62.126,55.6L48.94,42.33c3.043-4.33,4.834-9.597,4.834-15.288c0-14.709-11.925-26.632-26.632-26.632 c-14.706,0-26.63,11.923-26.63,26.632c0,14.708,11.924,26.632,26.63,26.632c5.63,0,10.851-1.75,15.15-4.738l13.183,13.271 c0.917,0.924,2.122,1.383,3.325,1.383c1.195,0,2.39-0.455,3.307-1.361C63.941,60.404,63.949,57.436,62.126,55.6z M9.886,27.042 c0-9.518,7.741-17.258,17.256-17.258c9.516,0,17.257,7.74,17.257,17.258c0,9.515-7.741,17.255-17.257,17.255 C17.627,44.297,9.886,36.557,9.886,27.042z"/></svg>