<?xml version="1.0" encoding="UTF-8"?><!DOCTYPE svg PUBLIC "-//W3C//DTD SVG 1.1//EN" "http://www.w3.org/Graphics/SVG/1.1/DTD/svg11.dtd"><svg xmlns="http://www.w3.org/2000/svg" height="272" viewBox="0 0 339 272" width="339"><svg height="64.315" viewBox="0 0 65 65" width="64.313" x="3" y="3"><path fill="#5C5A59" d="M63.697 52.468L42.854 31.625 63.695 10.782 52.382 -0.531 31.542 20.311 10.698 -0.534 -0.616 10.782 20.228 31.625 -0.614 52.468 10.7 63.781 31.541 42.938 52.384 63.781z"/></svg><svg height="64" viewBox="0 0 64 64" width="64" x="71" y="3"><path fill-rule="evenodd" clip-rule="evenodd" fill="#666" d="M8.25,0l52.5451,0c1.6569,0,3,1.3431,3,3v57.7951c0,1.6569-1.3431,3-3,3H3 c-1.6569,0-3-1.3431-3-3V3.0833C0,1.6697,1.5864,0,3.0833,0H8.25z"/><path fill-rule="evenodd" clip-rule="evenodd" fill="#FFF" d="M31.3623,44.6586h2.6095c0,0,0.788-0.0869,1.191-0.5205 c0.3704-0.3985,0.3585-1.1463,0.3585-1.1463s-0.0511-3.5014,1.5739-4.0172c1.6024-0.5082,3.6595,3.3842,5.8399,4.8809 c1.6488,1.1323,2.9018,0.8845,2.9018,0.8845l5.8305-0.0814c0,0,3.0498-0.1883,1.6036-2.5862 c-0.1183-0.1959-0.8424-1.7738-4.3353-5.0159c-3.6561-3.3933-3.1661-2.8443,1.2379-8.7138c2.6819-3.5746,3.754-5.7568,3.4189-6.6914 c-0.3192-0.8905-2.2918-0.6552-2.2918-0.6552l-6.5647,0.0407c0,0-0.487-0.0664-0.8478,0.1495 c-0.3528,0.211-0.5792,0.7042-0.5792,0.7042s-1.0394,2.7659-2.4247,5.1186c-2.9231,4.9635-4.0921,5.2263-4.57,4.9176 c-1.1118-0.7184-0.8339-2.8855-0.8339-4.4255c0-4.8105,0.7297-6.8161-1.4209-7.3352c-0.7135-0.1723-1.2391-0.2862-3.0641-0.3047 c-2.3425-0.024-4.3247,0.0071-5.4473,0.557c-0.7469,0.3659-1.3231,1.1806-0.9719,1.2276c0.434,0.0578,1.4164,0.2651,1.9373,0.9739 c0.6729,0.9155,0.6493,2.9707,0.6493,2.9707s0.3867,5.6626-0.9028,6.3659c-0.8847,0.4824-2.0986-0.5025-4.7049-5.0058 c-1.335-2.3066-2.3433-4.8567-2.3433-4.8567s-0.1942-0.4764-0.5411-0.7315c-0.4206-0.309-1.0084-0.4069-1.0084-0.4069 l-6.2383,0.0408c0,0-0.9363,0.0262-1.2803,0.4334c-0.3061,0.3625-0.0245,1.1115-0.0245,1.1115S15.0031,33.967,20.5332,39.725 C25.6046,45.0051,31.3623,44.6586,31.3623,44.6586L31.3623,44.6586z"/></svg><svg height="64" viewBox="0 0 64 64" width="64" x="138" y="3"><path fill="#3D5A98" d="M64,60.8518V2.9574C64,1.3239,62.6937,0,61.0827,0h-5.1939H8.2756h-5.194 C1.4768,0,0.1768,1.3144,0.1705,2.9385v52.6399L0.1674,60.855c0.0031,1.6304,1.3094,2.9574,2.9142,2.9574h32.2086V38.1939h-8.3165 v-8.8281h8.3165v-9.5832c0-5.7443,5.1255-9.6085,9.2651-9.6085h9.3024v8.035h-4.292c-2.118,0-4.9389,1.7473-4.9389,3.8927v7.2641 h8.3849v8.8281h-8.3849v25.6185h11.2587h5.1939C62.6937,63.8124,64,62.4854,64,60.8518z"/></svg><svg height="64" viewBox="0 0 64 64" width="64" x="3" y="71"><path fill="#666" d="M64,60.8518V2.9574C64,1.3239,62.6937,0,61.0827,0h-5.1939H8.2756H3.0816C1.4768,0,0.1768,1.3144,0.1705,2.9385v52.6399 L0.1674,60.855c0.0031,1.6304,1.3094,2.9574,2.9142,2.9574h32.2086V38.1939h-8.3165v-8.8281h8.3165v-9.5832 c0-5.7443,5.1255-9.6085,9.2651-9.6085h9.3024v8.035h-4.292c-2.118,0-4.9389,1.7473-4.9389,3.8927v7.2641h8.3849v8.8281h-8.3849 v25.6185h11.2587h5.1939C62.6937,63.8124,64,62.4854,64,60.8518z"/></svg><svg height="64" viewBox="0 0 64 64" width="64" x="70" y="71"><path d="M56.3943,0H7.6089C3.4105,0,0,3.3981,0,7.5934v48.8195C0,60.6051,3.4105,64,7.6089,64h48.7854 C60.5895,64,64,60.6051,64,56.4129V7.5934C64,3.3981,60.5895,0,56.3943,0z M32.9001,6.8025c7.0204,0,12.712,5.6919,12.712,12.7127 s-5.6916,12.719-12.712,12.719c-7.0236,0-12.712-5.6982-12.712-12.719S25.8765,6.8025,32.9001,6.8025z M44.1948,39.5555 c-2.7019,1.737-6.4003,2.3951-8.8238,2.645l2.028,2.0218l7.4887,7.4954c1.1358,1.1327,1.1358,2.9836,0,4.1226l-0.3448,0.3385 c-1.1358,1.1422-2.9834,1.1422-4.1161,0c-1.9109-1.9015-4.6539-4.651-7.4981-7.489l-7.4887,7.489 c-1.139,1.1422-2.9803,1.1422-4.1256,0l-0.3417-0.3385c-1.1358-1.1358-1.1358-2.9868,0-4.1226 c1.9078-1.911,4.6507-4.6541,7.4918-7.4922l2.0185-2.0186c-2.4171-0.2468-6.163-0.8954-8.887-2.6514 c-3.1922-2.0439-4.6033-3.262-3.3568-5.7773c0.7213-1.4396,2.705-2.6356,5.3499-0.5569c3.5687,2.8159,9.3047,2.8159,9.3047,2.8159 s5.7296,0,9.3015-2.8159c2.6449-2.0787,4.6349-0.8827,5.3499,0.5569C48.8076,36.2903,47.3839,37.5084,44.1948,39.5555z"/><circle cx="32.9" cy="19.515" r="6.255"/></svg><svg height="64" viewBox="0 0 64 64" width="64" x="137" y="71"><g fill="#F58220"><path d="M56.3943,0H7.6089C3.4105,0,0,3.3981,0,7.5934v48.8195C0,60.6051,3.4105,64,7.6089,64h48.7854 C60.5895,64,64,60.6051,64,56.4129V7.5934C64,3.3981,60.5895,0,56.3943,0z M32.9001,6.8025c7.0204,0,12.712,5.6919,12.712,12.7127 s-5.6916,12.719-12.712,12.719c-7.0236,0-12.712-5.6982-12.712-12.719S25.8765,6.8025,32.9001,6.8025z M44.1948,39.5555 c-2.7019,1.737-6.4003,2.3951-8.8238,2.645l2.028,2.0218l7.4887,7.4954c1.1358,1.1327,1.1358,2.9836,0,4.1226l-0.3448,0.3385 c-1.1358,1.1422-2.9834,1.1422-4.1161,0c-1.9109-1.9015-4.6539-4.651-7.4981-7.489l-7.4887,7.489 c-1.139,1.1422-2.9803,1.1422-4.1256,0l-0.3417-0.3385c-1.1358-1.1358-1.1358-2.9868,0-4.1226 c1.9078-1.911,4.6507-4.6541,7.4918-7.4922l2.0185-2.0186c-2.4171-0.2468-6.163-0.8954-8.887-2.6514 c-3.1922-2.0439-4.6033-3.262-3.3568-5.7773c0.7213-1.4396,2.705-2.6356,5.3499-0.5569c3.5687,2.8159,9.3047,2.8159,9.3047,2.8159 s5.7296,0,9.3015-2.8159c2.6449-2.0787,4.6349-0.8827,5.3499,0.5569C48.8076,36.2903,47.3839,37.5084,44.1948,39.5555z"/><circle cx="32.9" cy="19.515" r="6.255"/></g></svg><svg height="64" viewBox="0 0 64 64" width="64" x="205" y="3"><g fill="#666"><path d="M56.3943,0H7.6089C3.4105,0,0,3.3981,0,7.5934v48.8195C0,60.6051,3.4105,64,7.6089,64h48.7854 C60.5895,64,64,60.6051,64,56.4129V7.5934C64,3.3981,60.5895,0,56.3943,0z M32.9001,6.8025c7.0204,0,12.712,5.6919,12.712,12.7127 s-5.6916,12.719-12.712,12.719c-7.0236,0-12.712-5.6982-12.712-12.719S25.8765,6.8025,32.9001,6.8025z M44.1948,39.5555 c-2.7019,1.737-6.4003,2.3951-8.8238,2.645l2.028,2.0218l7.4887,7.4954c1.1358,1.1327,1.1358,2.9836,0,4.1226l-0.3448,0.3385 c-1.1358,1.1422-2.9834,1.1422-4.1161,0c-1.9109-1.9015-4.6539-4.651-7.4981-7.489l-7.4887,7.489 c-1.139,1.1422-2.9803,1.1422-4.1256,0l-0.3417-0.3385c-1.1358-1.1358-1.1358-2.9868,0-4.1226 c1.9078-1.911,4.6507-4.6541,7.4918-7.4922l2.0185-2.0186c-2.4171-0.2468-6.163-0.8954-8.887-2.6514 c-3.1922-2.0439-4.6033-3.262-3.3568-5.7773c0.7213-1.4396,2.705-2.6356,5.3499-0.5569c3.5687,2.8159,9.3047,2.8159,9.3047,2.8159 s5.7296,0,9.3015-2.8159c2.6449-2.0787,4.6349-0.8827,5.3499,0.5569C48.8076,36.2903,47.3839,37.5084,44.1948,39.5555z"/><circle cx="32.9" cy="19.515" r="6.255"/></g></svg><svg height="64" viewBox="0 0 64 64" width="64" x="205" y="70"><g fill="#5C5A59"><path d="M32.307,30.267c-5.278,0-9.575-4.779-9.575-10.647c0-5.871,4.297-10.647,9.575-10.647 c5.276,0,9.571,4.776,9.571,10.647C41.878,25.487,37.583,30.267,32.307,30.267 M32.307,14.032c-2.491,0-4.517,2.503-4.517,5.587 c0,3.082,2.026,5.589,4.517,5.589c2.49,0,4.511-2.507,4.511-5.589C36.819,16.535,34.799,14.032,32.307,14.032"/><path d="M45.692,55.028H18.574c-1.327,0-2.429-1.028-2.524-2.354c-0.207-2.934-0.403-5.872-0.595-8.76 c-0.244-3.545,2.405-7.485,5.898-8.776c6.964-2.504,14.615-2.489,21.538-0.009c3.522,1.292,6.17,5.235,5.923,8.796l-0.598,8.749 C48.122,53.999,47.019,55.028,45.692,55.028 M20.934,49.969h22.396l0.437-6.392c0.072-1.078-0.983-3.1-2.601-3.696 c-5.78-2.069-12.252-2.078-18.083,0.009c-1.591,0.586-2.652,2.612-2.578,3.684C20.64,45.688,20.789,47.828,20.934,49.969"/><path d="M45.692,55.028H18.574c-1.327,0-2.429-1.028-2.524-2.354c-0.207-2.934-0.403-5.872-0.595-8.76 c-0.244-3.545,2.405-7.485,5.898-8.776c6.964-2.504,14.615-2.489,21.538-0.009c3.522,1.292,6.17,5.235,5.923,8.796l-0.598,8.749 C48.122,53.999,47.019,55.028,45.692,55.028 M20.934,49.969h22.396l0.437-6.392c0.072-1.078-0.983-3.1-2.601-3.696 c-5.78-2.069-12.252-2.078-18.083,0.009c-1.591,0.586-2.652,2.612-2.578,3.684C20.64,45.688,20.789,47.828,20.934,49.969"/><path d="M62.094,50.918H51.298c-0.702,0-1.264-0.566-1.264-1.266s0.564-1.263,1.264-1.263h9.615l0.44-6.375 c0.094-1.388-1.129-3.488-2.848-4.116c-2.454-0.881-5.034-1.351-7.663-1.395c-0.702-0.012-1.256-0.588-1.243-1.285 c0.015-0.693,0.577-1.244,1.262-1.244h0.025c2.905,0.049,5.756,0.567,8.479,1.544c2.634,0.966,4.693,4.02,4.511,6.668l-0.517,7.555 C63.312,50.404,62.763,50.918,62.094,50.918"/><path d="M53.789,31.229c-3.724,0-6.761-3.406-6.761-7.596c0-4.183,3.037-7.592,6.761-7.592 c3.72,0,6.749,3.409,6.749,7.592C60.538,27.82,57.509,31.229,53.789,31.229 M53.789,18.572c-2.333,0-4.228,2.271-4.228,5.061 c0,2.794,1.895,5.066,4.228,5.066c2.326,0,4.22-2.272,4.22-5.066C58.009,20.843,56.115,18.572,53.789,18.572"/><path d="M12.929,50.918H2.127c-0.662,0-1.215-0.514-1.26-1.178l-0.519-7.558c-0.183-2.646,1.877-5.699,4.501-6.663 c2.732-0.979,5.584-1.497,8.489-1.546c0.731,0.096,1.275,0.543,1.291,1.243c0.009,0.697-0.545,1.274-1.248,1.286 c-2.627,0.044-5.208,0.515-7.668,1.396C4,38.525,2.779,40.625,2.874,42.012l0.435,6.377h9.62c0.702,0,1.264,0.564,1.264,1.263 C14.194,50.352,13.63,50.918,12.929,50.918"/><path d="M10.438,31.229c-3.72,0-6.749-3.406-6.749-7.596c0-4.183,3.028-7.592,6.749-7.592 c3.726,0,6.76,3.409,6.76,7.592C17.198,27.82,14.164,31.229,10.438,31.229 M10.438,18.572c-2.327,0-4.218,2.271-4.218,5.061 c0,2.794,1.891,5.066,4.218,5.066c2.333,0,4.23-2.272,4.23-5.066C14.667,20.843,12.771,18.572,10.438,18.572"/></g></svg><svg height="64" viewBox="0 0 64 64" width="64" x="3" y="138"><path d="M64,60.8518V2.9574C64,1.3239,62.6937,0,61.0827,0h-5.1939H8.2756H3.0816C1.4768,0,0.1768,1.3144,0.1705,2.9385v52.6399 L0.1674,60.855c0.0031,1.6304,1.3094,2.9574,2.9142,2.9574h32.2086V38.1939h-8.3165v-8.8281h8.3165v-9.5832 c0-5.7443,5.1255-9.6085,9.2651-9.6085h9.3024v8.035h-4.292c-2.118,0-4.9389,1.7473-4.9389,3.8927v7.2641h8.3849v8.8281h-8.3849 v25.6185h11.2587h5.1939C62.6937,63.8124,64,62.4854,64,60.8518z"/></svg><svg height="64" viewBox="0 0 64 64" width="64" x="70" y="138"><path fill="#FFF" d="M56 28l-39 0 -1 -5c0,-1 -1,-2 -2,-2l-6 -2c0,0 0,0 0,0 -1,0 -2,1 -3,2 0,1 0,1 1,2 0,1 0,1 1,1l4 1 9 32c-1,1 -2,2 -2,3 0,2 2,4 4,4 2,0 3,-2 3,-4 0,0 0,0 0,0l18 0c0,0 0,0 0,0 0,2 2,4 4,4 2,0 4,-2 4,-4 0,-2 -2,-3 -4,-3 -4,-1 -22,-2 -22,-2l-1 -2 23 0c1,0 2,-1 2,-2l5 -17 2 0c2,0 3,-2 3,-3 0,-2 -1,-3 -3,-3zm-29 19l-4 0c0,0 0,0 0,0 0,-1 -1,-1 -1,-1l-3 -12c0,0 0,0 0,0 0,0 0,0 0,0l5 0c1,0 1,0 1,0l2 13 0 0c1,0 1,0 1,0 0,0 -1,0 -1,0zm11 -13l-2 13c0,0 0,0 0,0l-4 0c0,0 0,0 0,0l-2 -13c0,0 0,0 0,0 0,0 0,0 0,0l8 0c0,0 0,0 0,0 0,0 0,0 0,0zm11 0l-4 13c0,0 0,0 0,0l-4 0c0,0 0,0 0,0 0,0 0,0 0,0l2 -13c0,0 1,0 1,0l5 0c0,0 0,0 0,0 0,0 0,0 0,0z"/><path fill="#FFF" d="M34 25c0,1 2,1 2,0l7 -10c0,-1 0,-1 0,-2 -1,0 -1,0 -2,0 0,0 -1,0 -1,0l-2 0 0 -10c0,-2 -2,-3 -3,-3 -2,0 -3,1 -3,3l0 10 -2 0 -2 0c-1,0 -1,1 -1,2l7 10z"/></svg><svg height="64" viewBox="0 0 64 64" width="64" x="137" y="138"><path fill="#FFF" d="M56 28l-39 0 -1 -5c0,-1 -1,-2 -2,-2l-6 -2c0,0 0,0 0,0 -1,0 -2,1 -3,2 0,1 0,1 1,2 0,1 0,1 1,1l4 1 9 32c-1,1 -2,2 -2,3 0,2 2,4 4,4 2,0 3,-2 3,-4 0,0 0,0 0,0l18 0c0,0 0,0 0,0 0,2 2,4 4,4 2,0 4,-2 4,-4 0,-2 -2,-3 -4,-3 -4,-1 -22,-2 -22,-2l-1 -2 23 0c1,0 2,-1 2,-2l5 -17 2 0c2,0 3,-2 3,-3 0,-2 -1,-3 -3,-3zm-29 19l-4 0c0,0 0,0 0,0 0,-1 -1,-1 -1,-1l-3 -12c0,0 0,0 0,0 0,0 0,0 0,0l5 0c1,0 1,0 1,0l2 13 0 0c1,0 1,0 1,0 0,0 -1,0 -1,0zm11 -13l-2 13c0,0 0,0 0,0l-4 0c0,0 0,0 0,0l-2 -13c0,0 0,0 0,0 0,0 0,0 0,0l8 0c0,0 0,0 0,0 0,0 0,0 0,0zm11 0l-4 13c0,0 0,0 0,0l-4 0c0,0 0,0 0,0 0,0 0,0 0,0l2 -13c0,0 1,0 1,0l5 0c0,0 0,0 0,0 0,0 0,0 0,0z"/></svg><svg height="64" viewBox="0 0 64 64" width="64" x="204" y="138"><path d="M56.3943,0H7.6089C3.4105,0,0,3.3981,0,7.5934v48.8195C0,60.6051,3.4105,64,7.6089,64h48.7854 C60.5895,64,64,60.6051,64,56.4129V7.5934C64,3.3981,60.5895,0,56.3943,0z M51.5506,22.986 c0.019,0.3892,0.0316,0.7847,0.0316,1.1738c0,11.985-9.1212,25.7987-25.8006,25.7987c-5.119,0-9.8868-1.5029-13.9016-4.072 c0.7119,0.0854,1.4269,0.1234,2.164,0.1234c4.2521,0,8.1562-1.4459,11.263-3.8821c-3.9705-0.0728-7.3178-2.6957-8.4726-6.2962 c0.5568,0.1044,1.12,0.1614,1.7053,0.1614c0.8289,0,1.6293-0.1076,2.3918-0.3164c-4.1509-0.8353-7.2735-4.4959-7.2735-8.8938 c0-0.038,0-0.0728,0-0.1107c1.2244,0.6739,2.6196,1.0884,4.1097,1.1295c-2.4393-1.6263-4.0338-4.401-4.0338-7.546 c0-1.6611,0.4461-3.2209,1.2275-4.5592c4.4704,5.4863,11.1523,9.0963,18.6884,9.4728c-0.155-0.6613-0.2341-1.3542-0.2341-2.066 c0-5.0022,4.0623-9.0647,9.0674-9.0647c2.6069,0,4.9608,1.0979,6.6186,2.8634c2.0691-0.4081,4.0117-1.1612,5.7581-2.1989 c-0.6802,2.1135-2.1134,3.8916-3.9864,5.0117c1.8287-0.2151,3.5782-0.6992,5.2044-1.4206 C54.863,20.1099,53.3223,21.7141,51.5506,22.986z"/></svg><svg height="64" viewBox="0 0 64 64" width="64" x="272" y="3"><path fill="#5EA9DD" d="M56.3943,0H7.6089C3.4105,0,0,3.3981,0,7.5934v48.8195C0,60.6051,3.4105,64,7.6089,64h48.7854 C60.5895,64,64,60.6051,64,56.4129V7.5934C64,3.3981,60.5895,0,56.3943,0z M51.5506,22.986 c0.019,0.3892,0.0316,0.7847,0.0316,1.1738c0,11.985-9.1212,25.7987-25.8006,25.7987c-5.119,0-9.8868-1.5029-13.9016-4.072 c0.7119,0.0854,1.4269,0.1234,2.164,0.1234c4.2521,0,8.1562-1.4459,11.263-3.8821c-3.9705-0.0728-7.3178-2.6957-8.4726-6.2962 c0.5568,0.1044,1.12,0.1614,1.7053,0.1614c0.8289,0,1.6293-0.1076,2.3918-0.3164c-4.1509-0.8353-7.2735-4.4959-7.2735-8.8938 c0-0.038,0-0.0728,0-0.1107c1.2244,0.6739,2.6196,1.0884,4.1097,1.1295c-2.4393-1.6263-4.0338-4.401-4.0338-7.546 c0-1.6611,0.4461-3.2209,1.2275-4.5592c4.4704,5.4863,11.1523,9.0963,18.6884,9.4728c-0.155-0.6613-0.2341-1.3542-0.2341-2.066 c0-5.0022,4.0623-9.0647,9.0674-9.0647c2.6069,0,4.9608,1.0979,6.6186,2.8634c2.0691-0.4081,4.0117-1.1612,5.7581-2.1989 c-0.6802,2.1135-2.1134,3.8916-3.9864,5.0117c1.8287-0.2151,3.5782-0.6992,5.2044-1.4206 C54.863,20.1099,53.3223,21.7141,51.5506,22.986z"/></svg><svg height="64" viewBox="0 0 64 64" width="64" x="272" y="70"><path fill="#666" d="M56.3943,0H7.6089C3.4105,0,0,3.3981,0,7.5934v48.8195C0,60.6051,3.4105,64,7.6089,64h48.7854 C60.5895,64,64,60.6051,64,56.4129V7.5934C64,3.3981,60.5895,0,56.3943,0z M51.5506,22.986 c0.019,0.3892,0.0316,0.7847,0.0316,1.1738c0,11.985-9.1212,25.7987-25.8006,25.7987c-5.119,0-9.8868-1.5029-13.9016-4.072 c0.7119,0.0854,1.4269,0.1234,2.164,0.1234c4.2521,0,8.1562-1.4459,11.263-3.8821c-3.9705-0.0728-7.3178-2.6957-8.4726-6.2962 c0.5568,0.1044,1.12,0.1614,1.7053,0.1614c0.8289,0,1.6293-0.1076,2.3918-0.3164c-4.1509-0.8353-7.2735-4.4959-7.2735-8.8938 c0-0.038,0-0.0728,0-0.1107c1.2244,0.6739,2.6196,1.0884,4.1097,1.1295c-2.4393-1.6263-4.0338-4.401-4.0338-7.546 c0-1.6611,0.4461-3.2209,1.2275-4.5592c4.4704,5.4863,11.1523,9.0963,18.6884,9.4728c-0.155-0.6613-0.2341-1.3542-0.2341-2.066 c0-5.0022,4.0623-9.0647,9.0674-9.0647c2.6069,0,4.9608,1.0979,6.6186,2.8634c2.0691-0.4081,4.0117-1.1612,5.7581-2.1989 c-0.6802,2.1135-2.1134,3.8916-3.9864,5.0117c1.8287-0.2151,3.5782-0.6992,5.2044-1.4206 C54.863,20.1099,53.3223,21.7141,51.5506,22.986z"/></svg><svg height="64" viewBox="0 0 64 64" width="64" x="272" y="137"><path fill-rule="evenodd" clip-rule="evenodd" d="M8.25,0l52.5451,0c1.6569,0,3,1.3431,3,3v57.7951c0,1.6569-1.3431,3-3,3H3 c-1.6569,0-3-1.3431-3-3V3.0833C0,1.6697,1.5864,0,3.0833,0H8.25z"/><path fill-rule="evenodd" clip-rule="evenodd" fill="#FFF" d="M31.3623,44.6586h2.6095c0,0,0.788-0.0869,1.191-0.5205 c0.3704-0.3985,0.3585-1.1463,0.3585-1.1463s-0.0511-3.5014,1.5739-4.0172c1.6024-0.5082,3.6595,3.3842,5.8399,4.8809 c1.6488,1.1323,2.9018,0.8845,2.9018,0.8845l5.8305-0.0814c0,0,3.0498-0.1883,1.6036-2.5862 c-0.1183-0.1959-0.8424-1.7738-4.3353-5.0159c-3.6561-3.3933-3.1661-2.8443,1.2379-8.7138c2.6819-3.5746,3.754-5.7568,3.4189-6.6914 c-0.3192-0.8905-2.2918-0.6552-2.2918-0.6552l-6.5647,0.0407c0,0-0.487-0.0664-0.8478,0.1495 c-0.3528,0.211-0.5792,0.7042-0.5792,0.7042s-1.0394,2.7659-2.4247,5.1186c-2.9231,4.9635-4.0921,5.2263-4.57,4.9176 c-1.1118-0.7184-0.8339-2.8855-0.8339-4.4255c0-4.8105,0.7297-6.8161-1.4209-7.3352c-0.7135-0.1723-1.2391-0.2862-3.0641-0.3047 c-2.3425-0.024-4.3247,0.0071-5.4473,0.557c-0.7469,0.3659-1.3231,1.1806-0.9719,1.2276c0.434,0.0578,1.4164,0.2651,1.9373,0.9739 c0.6729,0.9155,0.6493,2.9707,0.6493,2.9707s0.3867,5.6626-0.9028,6.3659c-0.8847,0.4824-2.0986-0.5025-4.7049-5.0058 c-1.335-2.3066-2.3433-4.8567-2.3433-4.8567s-0.1942-0.4764-0.5411-0.7315c-0.4206-0.309-1.0084-0.4069-1.0084-0.4069 l-6.2383,0.0408c0,0-0.9363,0.0262-1.2803,0.4334c-0.3061,0.3625-0.0245,1.1115-0.0245,1.1115S15.0031,33.967,20.5332,39.725 C25.6046,45.0051,31.3623,44.6586,31.3623,44.6586L31.3623,44.6586z"/></svg><svg height="64" viewBox="0 0 64 64" width="64" x="3" y="205"><path fill-rule="evenodd" clip-rule="evenodd" fill="#4D75A3" d="M8.25,0l52.5451,0c1.6569,0,3,1.3431,3,3v57.7951 c0,1.6569-1.3431,3-3,3H3c-1.6569,0-3-1.3431-3-3V3.0833C0,1.6697,1.5864,0,3.0833,0H8.25z"/><path fill-rule="evenodd" clip-rule="evenodd" fill="#FFF" d="M31.3623,44.6586h2.6095c0,0,0.788-0.0869,1.191-0.5205 c0.3704-0.3985,0.3585-1.1463,0.3585-1.1463s-0.0511-3.5014,1.5739-4.0172c1.6024-0.5082,3.6595,3.3842,5.8399,4.8809 c1.6488,1.1323,2.9018,0.8845,2.9018,0.8845l5.8305-0.0814c0,0,3.0498-0.1883,1.6036-2.5862 c-0.1183-0.1959-0.8424-1.7738-4.3353-5.0159c-3.6561-3.3933-3.1661-2.8443,1.2379-8.7138c2.6819-3.5746,3.754-5.7568,3.4189-6.6914 c-0.3192-0.8905-2.2918-0.6552-2.2918-0.6552l-6.5647,0.0407c0,0-0.487-0.0664-0.8478,0.1495 c-0.3528,0.211-0.5792,0.7042-0.5792,0.7042s-1.0394,2.7659-2.4247,5.1186c-2.9231,4.9635-4.0921,5.2263-4.57,4.9176 c-1.1118-0.7184-0.8339-2.8855-0.8339-4.4255c0-4.8105,0.7297-6.8161-1.4209-7.3352c-0.7135-0.1723-1.2391-0.2862-3.0641-0.3047 c-2.3425-0.024-4.3247,0.0071-5.4473,0.557c-0.7469,0.3659-1.3231,1.1806-0.9719,1.2276c0.434,0.0578,1.4164,0.2651,1.9373,0.9739 c0.6729,0.9155,0.6493,2.9707,0.6493,2.9707s0.3867,5.6626-0.9028,6.3659c-0.8847,0.4824-2.0986-0.5025-4.7049-5.0058 c-1.335-2.3066-2.3433-4.8567-2.3433-4.8567s-0.1942-0.4764-0.5411-0.7315c-0.4206-0.309-1.0084-0.4069-1.0084-0.4069 l-6.2383,0.0408c0,0-0.9363,0.0262-1.2803,0.4334c-0.3061,0.3625-0.0245,1.1115-0.0245,1.1115S15.0031,33.967,20.5332,39.725 C25.6046,45.0051,31.3623,44.6586,31.3623,44.6586L31.3623,44.6586z"/></svg><svg height="64" viewBox="0 0 64 64" width="64" x="70" y="205"><path fill="#FFF" d="M62.126,55.6L48.94,42.33c3.043-4.33,4.834-9.597,4.834-15.288c0-14.709-11.925-26.632-26.632-26.632 c-14.706,0-26.63,11.923-26.63,26.632c0,14.708,11.924,26.632,26.63,26.632c5.63,0,10.851-1.75,15.15-4.738l13.183,13.271 c0.917,0.924,2.122,1.383,3.325,1.383c1.195,0,2.39-0.455,3.307-1.361C63.941,60.404,63.949,57.436,62.126,55.6z M9.886,27.042 c0-9.518,7.741-17.258,17.256-17.258c9.516,0,17.257,7.74,17.257,17.258c0,9.515-7.741,17.255-17.257,17.255 C17.627,44.297,9.886,36.557,9.886,27.042z"/></svg></svg>