<?xml version="1.0" encoding="UTF-8"?>
<!DOCTYPE svg PUBLIC "-//W3C//DTD SVG 1.1//EN" "http://www.w3.org/Graphics/SVG/1.1/DTD/svg11.dtd">
<!-- Creator: CorelDRAW X7 -->
<svg xmlns="http://www.w3.org/2000/svg" xml:space="preserve" width="64px" height="64px" version="1.1" style="shape-rendering:geometricPrecision; text-rendering:geometricPrecision; image-rendering:optimizeQuality; fill-rule:evenodd; clip-rule:evenodd"
viewBox="0 0 64 64"
 xmlns:xlink="http://www.w3.org/1999/xlink">
   <path fill="#FFFFFF" d="M56 28l-39 0 -1 -5c0,-1 -1,-2 -2,-2l-6 -2c0,0 0,0 0,0 -1,0 -2,1 -3,2 0,1 0,1 1,2 0,1 0,1 1,1l4 1 9 32c-1,1 -2,2 -2,3 0,2 2,4 4,4 2,0 3,-2 3,-4 0,0 0,0 0,0l18 0c0,0 0,0 0,0 0,2 2,4 4,4 2,0 4,-2 4,-4 0,-2 -2,-3 -4,-3 -4,-1 -22,-2 -22,-2l-1 -2 23 0c1,0 2,-1 2,-2l5 -17 2 0c2,0 3,-2 3,-3 0,-2 -1,-3 -3,-3zm-29 19l-4 0c0,0 0,0 0,0 0,-1 -1,-1 -1,-1l-3 -12c0,0 0,0 0,0 0,0 0,0 0,0l5 0c1,0 1,0 1,0l2 13 0 0c1,0 1,0 1,0 0,0 -1,0 -1,0zm11 -13l-2 13c0,0 0,0 0,0l-4 0c0,0 0,0 0,0l-2 -13c0,0 0,0 0,0 0,0 0,0 0,0l8 0c0,0 0,0 0,0 0,0 0,0 0,0zm11 0l-4 13c0,0 0,0 0,0l-4 0c0,0 0,0 0,0 0,0 0,0 0,0l2 -13c0,0 1,0 1,0l5 0c0,0 0,0 0,0 0,0 0,0 0,0z"/>
</svg>
